<?xml version="1.0" standalone="no"?>
<!DOCTYPE svg PUBLIC "-//W3C//DTD SVG 20010904//EN"
 "http://www.w3.org/TR/2001/REC-SVG-20010904/DTD/svg10.dtd">
<svg version="1.0" xmlns="http://www.w3.org/2000/svg"
 width="500.000000pt" height="500.000000pt" viewBox="0 0 500.000000 500.000000"
 preserveAspectRatio="xMidYMid meet">

<g transform="translate(0.000000,500.000000) scale(0.100000,-0.100000)"
fill="#000000" stroke="none">
<path d="M1485 2731 c-94 -43 -125 -108 -125 -257 0 -96 3 -111 27 -155 29
-54 69 -89 122 -107 46 -16 1948 -17 2004 -1 48 13 102 61 129 113 24 45 35
163 24 239 -10 64 -56 128 -115 160 l-49 27 -988 0 c-941 0 -991 -1 -1029 -19z
m245 -166 c0 -9 -9 -15 -23 -15 -13 0 -28 -5 -35 -12 -29 -29 -1 -78 45 -78
15 0 23 -5 21 -12 -7 -22 -53 -20 -81 2 -53 42 -24 130 43 130 20 0 30 -5 30
-15z m160 -5 c27 -27 26 -77 -2 -107 -45 -49 -128 -14 -128 54 0 44 30 73 75
73 22 0 43 -8 55 -20z m104 -22 l36 -43 0 43 c0 31 4 42 15 42 12 0 15 -15 15
-77 l0 -77 -44 43 -44 43 1 -41 c2 -32 -1 -41 -13 -39 -11 3 -16 21 -18 76 -2
42 1 72 7 72 5 0 25 -19 45 -42z m196 27 c0 -8 -9 -15 -20 -15 -18 0 -20 -7
-20 -60 0 -47 -3 -60 -15 -60 -12 0 -15 13 -15 60 0 53 -2 60 -20 60 -11 0
-20 7 -20 15 0 12 13 15 55 15 42 0 55 -3 55 -15z m108 3 c15 -15 15 -51 0
-66 -10 -10 -8 -19 5 -42 18 -29 18 -30 -1 -30 -12 0 -24 11 -32 30 -7 17 -16
30 -21 30 -5 0 -9 -13 -9 -30 0 -20 -5 -30 -15 -30 -12 0 -15 15 -15 75 l0 75
38 0 c21 0 43 -5 50 -12z m172 -8 c27 -27 27 -83 -2 -110 -49 -45 -128 -11
-128 55 0 46 29 75 75 75 22 0 43 -8 55 -20z m80 -40 c0 -57 1 -60 25 -60 16
0 25 -6 25 -15 0 -11 -11 -15 -40 -15 l-40 0 0 75 c0 60 3 75 15 75 12 0 15
-13 15 -60z m240 45 c0 -10 -10 -15 -30 -15 -28 0 -50 -22 -50 -49 0 -18 31
-41 56 -41 15 0 24 -6 24 -15 0 -25 -57 -19 -85 10 -30 30 -32 64 -4 99 24 30
89 38 89 11z m100 0 c0 -8 -9 -15 -20 -15 -11 0 -20 -7 -20 -15 0 -8 9 -15 20
-15 11 0 20 -7 20 -15 0 -8 -9 -15 -20 -15 -11 0 -20 -7 -20 -15 0 -9 9 -15
25 -15 16 0 25 -6 25 -15 0 -11 -11 -15 -40 -15 l-40 0 0 75 0 75 35 0 c24 0
35 -5 35 -15z m84 -27 l36 -43 0 43 c0 31 4 42 15 42 12 0 15 -15 15 -77 l0
-77 -38 37 c-40 39 -54 46 -51 25 4 -35 -2 -58 -16 -58 -13 0 -15 14 -14 75 1
41 5 75 9 75 5 0 24 -19 44 -42z m196 27 c0 -8 -9 -15 -20 -15 -18 0 -20 -7
-20 -60 0 -47 -3 -60 -15 -60 -12 0 -15 13 -15 60 0 53 -2 60 -20 60 -11 0
-20 7 -20 15 0 12 13 15 55 15 42 0 55 -3 55 -15z m98 3 c-3 -7 -14 -14 -26
-16 -28 -4 -29 -32 -2 -32 11 0 20 -7 20 -15 0 -8 -9 -15 -20 -15 -11 0 -20
-7 -20 -15 0 -9 9 -15 25 -15 16 0 25 -6 25 -15 0 -11 -11 -15 -40 -15 l-40 0
0 75 0 75 41 0 c28 0 39 -4 37 -12z m120 0 c15 -15 15 -51 0 -66 -9 -9 -9 -18
0 -37 15 -33 15 -35 -1 -35 -7 0 -22 15 -32 33 l-20 32 -3 -32 c-2 -21 -9 -33
-18 -33 -11 0 -14 16 -14 75 l0 75 38 0 c21 0 43 -5 50 -12z"/>
<path d="M1800 2534 c-10 -11 -11 -23 -4 -42 17 -48 84 -38 84 12 0 43 -53 63
-80 30z"/>
<path d="M2240 2535 c0 -8 9 -15 20 -15 11 0 20 7 20 15 0 8 -9 15 -20 15 -11
0 -20 -7 -20 -15z"/>
<path d="M2382 2538 c-7 -7 -12 -21 -12 -33 0 -12 5 -26 12 -33 7 -7 21 -12
33 -12 12 0 26 5 33 12 7 7 12 21 12 33 0 12 -5 26 -12 33 -7 7 -21 12 -33 12
-12 0 -26 -5 -33 -12z"/>
<path d="M3330 2535 c0 -8 9 -15 20 -15 11 0 20 7 20 15 0 8 -9 15 -20 15 -11
0 -20 -7 -20 -15z"/>
</g>
</svg>
